<svg width="780" height="280" viewBox="0 0 780 280" fill="none" xmlns="http://www.w3.org/2000/svg" font-family="'Arial Black', 'Helvetica Neue', Arial, sans-serif">
  <!-- ===== viewfinder corner brackets (recorded-footage feel) ===== -->
  <g stroke="#ffffff" stroke-width="5" stroke-linecap="square" fill="none" opacity="0.9">
    <path d="M14 36 V14 H36"/>
    <path d="M744 14 H766 V36"/>
    <path d="M14 244 V266 H36"/>
    <path d="M766 244 V266 H744"/>
  </g>

  <!-- ===== REC indicator (top-right) ===== -->
  <g transform="translate(648,40)">
    <circle cx="0" cy="0" r="8" fill="#E11D2A">
      <animate attributeName="opacity" values="1;0.25;1" dur="1.4s" repeatCount="indefinite"/>
    </circle>
    <text x="18" y="6" font-size="22" font-weight="900" letter-spacing="3" fill="#ffffff">REC</text>
  </g>

  <!-- ===== City of Batavia windmill mark ===== -->
  <g transform="translate(30,40) scale(0.8)">
    <path d="M5.31117 86.1069C5.31117 86.1069 5.5245 86.5509 5.63117 86.7722C7.71917 91.1242 10.3378 95.2015 13.4152 98.9389V164.636V225.024V230.108C13.4152 241.627 48.6565 250.964 93.2912 250.964C137.928 250.964 173.167 241.627 173.167 230.108H173.169V95.3789L189.862 97.2549L189.42 95.7149C189.286 95.2469 186.195 83.6909 177.031 78.0029C180.144 75.7455 186.912 70.8202 186.467 61.5708L186.42 60.5855L134.511 58.7135C134.507 58.6348 134.506 58.5562 134.503 58.4775C134.378 55.7975 134.066 53.1642 133.582 50.5895C133.389 49.5615 133.167 48.5402 132.918 47.5309C131.799 42.9855 130.132 38.6429 127.988 34.5602L122.434 36.8949L120.762 33.9589L126.332 31.6189C120.682 22.2122 112.42 14.3589 102.471 8.83218C99.1552 6.99086 95.6512 5.40686 91.9952 4.10953L89.8552 9.34818L86.6592 8.3042L88.7992 3.06287C83.5525 1.48019 78.0245 0.476181 72.3098 0.133514C69.7138 -0.023819 67.0765 -0.0424652 64.4112 0.0802002C63.3952 0.129532 62.3845 0.196198 61.3805 0.284195C59.8752 0.414856 58.3845 0.592194 56.9098 0.812195C55.9272 0.96019 54.9512 1.12552 53.9845 1.30952C53.5018 1.40286 53.0192 1.50018 52.5392 1.60152C48.7018 2.41486 44.9925 3.52686 41.4405 4.90686L44.0072 9.95218L40.8992 11.2402L38.3365 6.19885C37.8858 6.40018 37.4378 6.60417 36.9925 6.81351C36.1032 7.23218 35.2258 7.66685 34.3592 8.11885C33.9258 8.34552 33.4965 8.57619 33.0685 8.80952C31.3618 9.74686 29.7045 10.7522 28.1005 11.8189C23.2858 15.0189 18.9538 18.7802 15.2152 22.9909C11.4765 27.2002 8.3285 31.8602 5.8845 36.8575L11.6205 38.7269L10.2138 41.7962L4.48984 39.9309C4.28717 40.4122 4.0925 40.8962 3.90184 41.3815C2.57917 44.7855 1.57117 48.3175 0.911169 51.9522C0.817836 52.4695 0.729836 52.9908 0.649836 53.5148C0.491169 54.5602 0.359169 55.6149 0.257836 56.6749C0.00450281 59.3269 -0.0648306 62.0242 0.061836 64.7508C0.361836 71.1682 1.72584 77.3029 3.98584 83.0255L9.55917 80.6855L10.8645 83.7735L5.31117 86.1069Z" fill="#292F7B"/>
    <path d="M92.5298 74.7697C94.6152 70.7777 95.8018 66.247 95.8018 61.4404C95.8018 45.4217 82.7218 32.4377 66.5858 32.4377C50.4498 32.4377 37.3712 45.4217 37.3712 61.4404C37.3712 66.247 38.5565 70.7777 40.6418 74.7697H15.6071V97.7777L22.0018 103.424V162.895V221.522V229.242C23.4285 230.76 29.1831 234.396 43.5231 237.568C57.5525 240.671 74.6165 242.379 93.2912 242.379C111.967 242.379 129.032 240.671 143.059 237.568C157.399 234.396 163.155 230.762 164.582 229.242V221.522L164.583 153.771V90.3257H168.168V74.7697H92.5298Z" fill="#00ADEF"/>
    <path d="M22.0012 229.241C23.4278 230.761 29.1838 234.396 43.5238 237.568C57.5518 240.67 74.6172 242.38 93.2918 242.38C111.968 242.38 129.032 240.67 143.06 237.568C157.4 234.396 163.154 230.762 164.582 229.241V221.522L164.584 153.77C141.446 152.11 118.192 152.101 90.4465 154.05C66.0985 155.761 42.9918 158.824 22.0012 162.894V221.522V229.241Z" fill="#60C560"/>
    <path d="M143.06 237.568C157.4 234.396 163.154 230.762 164.582 229.241C142.401 228.854 131.512 226.862 121.678 225.156C101.737 221.698 102.437 215.621 102.437 215.621C102.666 208.102 126.54 201.246 126.54 201.246C154.798 192.764 152.734 185.414 152.734 185.414C151.933 177.494 129.014 177.24 129.014 177.24C99.2891 175.825 101.277 171.428 101.277 171.428C103.945 165.304 148.205 158.576 164.584 156.289V154.232C126.27 158.314 118.964 159.773 118.964 159.773C76.8665 166.857 73.3278 172.498 73.3278 172.498C70.4798 181.912 99.6945 184.001 99.6945 184.001C107.837 184.989 103.402 188.669 103.402 188.669C100.842 190.694 79.6531 197.406 79.6531 197.406C75.9958 198.28 72.0385 199.45 69.0571 200.5C39.3425 210.954 41.7985 229.249 44.9665 237.873C58.7171 240.78 75.2491 242.378 93.2918 242.378C111.968 242.378 129.032 240.67 143.06 237.568Z" fill="white"/>
    <path d="M158.913 125.815C157.162 121.941 153.273 119.239 148.743 119.239C146.495 119.239 144.406 119.91 142.654 121.054C141.665 115.358 136.711 111.025 130.733 111.025C124.954 111.025 120.127 115.075 118.921 120.491C118.511 120.437 118.098 120.399 117.674 120.399C113.533 120.399 110.029 123.115 108.839 126.862C108.246 126.635 107.605 126.507 106.931 126.507C103.965 126.507 101.559 128.911 101.559 131.878H164.583V122.621C162.218 122.727 160.151 123.967 158.913 125.815Z" fill="white"/>
    <path d="M168.168 90.3256H164.584V122.62V131.878V153.771V154.232V156.29V221.522L164.582 229.242C163.154 230.762 157.4 234.396 143.06 237.568C129.032 240.671 111.968 242.379 93.2918 242.379C75.2491 242.379 58.7171 240.78 44.9665 237.874C44.4851 237.772 43.9985 237.672 43.5238 237.568C29.1838 234.396 23.4278 230.76 22.0011 229.242V221.522V162.895V103.424L15.6065 97.7776L13.4158 95.8443V230.108C13.4158 241.627 48.6558 250.964 93.2918 250.964C137.928 250.964 173.166 241.627 173.166 230.108L173.168 90.3256H168.168Z" fill="#292F7B"/>
    <path d="M70.1328 61.3061L87.8701 67.0807C86.8834 69.1714 85.5074 71.1234 83.7674 72.8581C82.1034 74.5154 80.1874 75.8887 78.0968 76.9581L70.1328 61.3061ZM71.5328 79.1847L71.0208 70.4461L75.0008 78.2728C73.8794 78.6581 72.7194 78.9647 71.5328 79.1847ZM57.6674 64.1087L61.9648 68.7914L58.2048 78.0021C55.9234 77.1234 53.7994 75.8981 51.9168 74.3447C49.8928 72.6727 48.2634 70.7154 47.0634 68.5634L57.6674 64.1087ZM50.5821 45.7274C52.2688 44.0501 54.2128 42.6607 56.3368 41.5847L63.4728 55.6101L47.1141 50.2821C48.0274 48.6527 49.1848 47.1194 50.5821 45.7274ZM67.2968 55.7301L59.4381 40.2821C61.5901 39.5554 63.8728 39.1181 66.2274 39.0074C66.9234 38.9754 67.6128 38.9714 68.2994 38.9967C70.1808 39.0607 72.0234 39.3407 73.7928 39.8181L67.2968 55.7301ZM82.4314 44.2421C83.9461 45.4941 85.2381 46.9074 86.2981 48.4407L71.3274 54.7301L76.9674 40.9181C78.9368 41.7647 80.7768 42.8767 82.4314 44.2421ZM79.2021 197.707L80.8874 207.765L70.4808 202.37L79.2021 197.707ZM60.4514 207.733L73.0634 214.27L47.7941 214.502L60.4514 207.733ZM67.7794 151.813L63.2741 156.402L59.2861 151.89L67.7794 151.813ZM54.6048 160.753L56.6901 163.11L53.1394 166.726L54.6048 160.753ZM72.9848 160.643L74.3808 168.963L69.8488 163.838L72.9848 160.643ZM63.2634 170.546L74.3941 183.137L50.6888 183.355L63.2634 170.546ZM67.2341 192.579L59.5341 196.697L51.8634 192.722L67.2341 192.579ZM45.0314 199.741L49.5048 202.059L43.6994 205.165L45.0314 199.741ZM44.7074 60.3421C44.5954 57.9447 44.9461 55.5887 45.7221 53.3581L48.6981 54.3274L55.2608 61.4821L45.6941 65.5007C45.1274 63.8487 44.7888 62.1194 44.7074 60.3421ZM89.6421 58.2447C89.7327 60.1807 89.5168 62.0901 89.0234 63.9301L71.5968 58.2554L87.9741 51.3741C88.9581 53.5261 89.5301 55.8421 89.6421 58.2447ZM120.762 33.9581L126.331 31.6181C120.682 22.2127 112.421 14.3594 102.471 8.83275C99.1554 6.99141 95.6514 5.40607 91.9941 4.11008L89.8554 9.3474L86.6594 8.30475L88.7994 3.06207C83.5514 1.48074 78.0248 0.47673 72.3101 0.132736C69.7141 -0.0232697 67.0768 -0.0432434 64.4114 0.0807495C63.3941 0.128754 62.3834 0.196747 61.3808 0.283417C59.8754 0.415405 58.3834 0.592743 56.9101 0.812744C55.9274 0.959412 54.9514 1.12476 53.9848 1.31009C53.5008 1.40208 53.0194 1.50075 52.5394 1.60208C48.7021 2.41541 44.9928 3.5274 41.4394 4.90607L44.0074 9.9514L40.8994 11.2394L38.3354 6.1994C37.8848 6.3994 37.4381 6.60474 36.9928 6.81407C36.1034 7.2314 35.2248 7.6674 34.3594 8.11807C33.9261 8.34473 33.4954 8.57541 33.0688 8.81009C31.3621 9.74742 29.7048 10.7527 28.1008 11.8194C23.6874 14.7527 19.6794 18.1581 16.1621 21.9474C15.4688 22.6954 14.7954 23.4581 14.1408 24.2354C13.6514 24.8181 13.1714 25.4074 12.7034 26.0047C12.5741 26.1687 12.4461 26.3341 12.3194 26.5007C11.8981 27.0501 11.4861 27.6061 11.0848 28.1674C10.9248 28.3901 10.7688 28.6114 10.6114 28.8354C10.2528 29.3514 9.90209 29.8714 9.56076 30.3954C9.41543 30.6194 9.27009 30.8421 9.12743 31.0674C7.94076 32.9421 6.85543 34.8727 5.88343 36.8581L11.6208 38.7261L10.2141 41.7954L4.4901 39.9314C4.28743 40.4127 4.09276 40.8954 3.90209 41.3821C2.57943 44.7847 1.57143 48.3181 0.911427 51.9514C0.818094 52.4701 0.730095 52.9914 0.650095 53.5141C0.491428 54.5594 0.35943 55.6141 0.258097 56.6741C0.00342987 59.3274 -0.0645744 62.0234 0.0620923 64.7514C0.362092 71.1674 1.72476 77.3034 3.98609 83.0261L9.55809 80.6847L10.8648 83.7741L5.31143 86.1074C5.31143 86.1074 5.52476 86.5514 5.63143 86.7727C5.85409 87.2367 6.08343 87.6994 6.31809 88.1581C6.56476 88.6394 6.82076 89.1181 7.08076 89.5941C13.5874 101.461 24.1648 111.05 37.0848 116.906C37.5728 117.127 38.0634 117.343 38.5581 117.555C39.5501 117.977 40.5514 118.377 41.5661 118.754L43.7074 113.513L46.8821 114.611L44.7421 119.849C47.5861 120.754 50.5154 121.485 53.5141 122.035L52.3514 135.309L30.1234 135.542L30.1794 142.922L41.7701 148.647L46.7074 148.629L25.6141 234.521L25.0781 236.703L27.2608 237.241L30.5954 238.061L30.5421 238.275L35.2821 239.442L39.0848 223.959L83.5368 223.55L87.2434 248.201L87.6154 250.417L89.8314 250.045L94.6461 249.237L96.8634 248.866L96.5474 246.978L102.045 243.882L82.4261 148.501L96.6821 148.45L96.6528 143.885L89.2021 134.923L74.8448 135.074L74.1754 122.846C76.6528 122.597 79.0901 122.227 81.4754 121.741C82.5221 121.527 83.5608 121.291 84.5888 121.034C85.6168 120.777 86.6354 120.498 87.6421 120.197C90.1608 119.446 92.6128 118.566 94.9914 117.563L92.4274 112.525L95.4874 111.142L98.0514 116.185C105.266 112.729 111.705 108.126 117.091 102.654C118.169 101.559 119.205 100.431 120.195 99.2687C120.855 98.4954 121.495 97.7061 122.117 96.9021C123.782 94.7487 125.298 92.4927 126.658 90.1527L189.862 97.2554L189.421 95.7154C189.286 95.2474 186.195 83.6901 177.031 78.0021C180.145 75.7461 186.913 70.8207 186.467 61.5701L186.421 60.5861L134.511 58.7141C134.507 58.6354 134.506 58.5554 134.502 58.4781C134.378 55.7967 134.066 53.1647 133.582 50.5901C133.387 49.5607 133.166 48.5407 132.918 47.5314C131.799 42.9861 130.133 38.6434 127.989 34.5594L122.434 36.8941L120.762 33.9581Z" fill="#292F7B"/>
    <path d="M125.247 79.2514L130.947 81.1087C130.739 81.6661 130.519 82.2194 130.294 82.7701C130.277 82.8114 130.261 82.8514 130.243 82.8927C130.023 83.4274 129.795 83.9567 129.559 84.4847L184.562 89.8541C182.547 86.0914 179.318 81.5394 174.491 79.0234L172.755 78.1194L174.45 77.1421C174.533 77.0954 181.091 73.9421 183.481 67.3381L134.426 65.0821V65.0847C134.387 65.6207 134.343 66.1554 134.29 66.6874C134.287 66.7141 134.286 66.7381 134.283 66.7647C134.177 67.8341 134.042 68.8954 133.875 69.9501C133.869 69.9981 133.861 70.0434 133.853 70.0901C133.778 70.5527 133.699 71.0127 133.614 71.4727C133.601 71.5514 133.586 71.6287 133.57 71.7074C133.382 72.7047 133.167 73.6927 132.927 74.6727C132.898 74.7914 132.867 74.9101 132.837 75.0274C132.745 75.3954 132.649 75.7634 132.549 76.1274C132.511 76.2621 132.477 76.3941 132.439 76.5274C132.309 76.9941 132.173 77.4581 132.031 77.9207L132.027 77.9327L126.287 76.0621L125.247 79.2514Z" fill="white"/>
    <path d="M86.9907 140.112L86.9747 137.228L32.3907 137.733L32.4067 140.617L86.9907 140.112Z" fill="white"/>
    <path d="M66.4296 163.365L74.3642 155.282L77.8962 176.334L66.4296 163.365ZM44.9376 185.657L63.0016 166.857L79.3416 185.338L44.9376 185.657ZM83.8482 211.83L64.8069 201.961L80.7629 193.429L83.8482 211.83ZM37.2629 216.847L37.3069 216.667L59.5856 204.754L82.1242 216.434L37.2629 216.847ZM43.7336 190.549L76.3602 190.247L59.5509 199.237L43.7336 190.549ZM42.4269 195.861L54.3296 202.029L38.8762 210.293L42.4269 195.861ZM52.4882 154.965L59.7602 163.19L47.3549 175.826L52.4882 154.965ZM73.1842 149.515L63.1882 159.698L54.3402 149.689L73.1842 149.515ZM49.9242 144.95L27.7962 235.059L32.5362 236.225L36.0602 221.739L85.4349 221.283L89.4589 247.829L94.2749 247.021L77.5456 144.77L49.9242 144.95Z" fill="white"/>
    <path d="M68.4479 123.208C64.0999 123.311 59.8385 123.03 55.6999 122.403L54.6052 135.286L69.0132 135.134L68.4479 123.208Z" fill="white"/>
    <path d="M74.6106 37.8153L86.6586 8.3046C79.772 6.24994 72.3586 5.28993 64.6706 5.64993C57.36 5.99126 50.4053 7.49527 44.008 9.9526L58.456 38.3526C60.8826 37.5006 63.4626 36.9886 66.128 36.8646C69.044 36.7286 71.9066 37.0579 74.6106 37.8153Z" fill="white"/>
    <path d="M88.3216 47.5899L120.762 33.9579C113.912 22.7592 102.971 14.0219 89.8549 9.34724L77.7802 38.9286C79.9482 39.8566 81.9749 41.0819 83.7976 42.5872C85.5909 44.0672 87.1056 45.7526 88.3216 47.5899Z" fill="white"/>
    <path d="M45.0729 69.3998L10.8649 83.7731C17.1009 97.2971 28.9795 107.982 43.7075 113.513L57.3942 79.9838C54.9155 79.0251 52.6022 77.6931 50.5502 75.9984C48.2502 74.0998 46.4102 71.8638 45.0729 69.3998Z" fill="white"/>
    <path d="M55.3645 39.6719L40.8992 11.2399C27.9485 17.0106 17.5712 26.7919 11.6205 38.7266L45.0325 49.6053C46.0712 47.6653 47.4205 45.8479 49.0658 44.2079C50.9138 42.3679 53.0418 40.8493 55.3645 39.6719Z" fill="white"/>
    <path d="M43.6796 52.6929L10.2129 41.7955C7.24757 48.8169 5.7729 56.4902 6.14623 64.4675C6.41023 70.1529 7.5969 75.5955 9.55823 80.6849L43.7116 66.3342C43.0516 64.4502 42.6569 62.4755 42.5622 60.4422C42.4382 57.7795 42.8236 55.1649 43.6796 52.6929Z" fill="white"/>
    <path d="M79.0664 78.8647L95.4864 111.142C109.409 104.405 120.133 92.958 125.222 79.2434L89.9264 67.75C88.829 70.1567 87.2704 72.3967 85.281 74.3794C83.457 76.1954 81.357 77.6954 79.0664 78.8647Z" fill="white"/>
    <path d="M91.0702 64.5951L95.3902 66.0031L126.288 76.0631C127.937 70.5658 128.7 64.7498 128.421 58.7618C128.053 50.9125 125.937 43.5245 122.433 36.8951L89.9556 50.5405C91.0356 52.9218 91.6622 55.4858 91.7862 58.1445C91.8889 60.3445 91.6409 62.5125 91.0702 64.5951Z" fill="white"/>
    <path d="M65.9726 81.7358C64.1406 81.6718 62.342 81.4225 60.6033 80.9985L46.882 114.61C54.0553 116.881 61.8246 117.956 69.894 117.58C77.9233 117.205 85.5233 115.429 92.4273 112.525L75.9833 80.2025C73.5313 81.0745 70.9193 81.5971 68.222 81.7225C67.4673 81.7585 66.7166 81.7625 65.9726 81.7358Z" fill="white"/>
  </g>

  <!-- ===== wordmark ===== -->
  <text x="203" y="166" font-size="78" font-weight="900" letter-spacing="-2" fill="#ffffff">E-MOBILITY</text>
  <!-- FAILS: cyan parallelogram slab + white italic text for energy -->
  <polygon points="222,188 548,188 530,258 204,258" fill="#00ADEF"/>
  <text x="226" y="246" font-size="80" font-weight="900" font-style="italic" letter-spacing="1" fill="#ffffff">FAILS</text>
  <!-- green underscore accent -->
  <rect x="206" y="266" width="326" height="6" rx="3" fill="#60C560"/>
</svg>
