<svg width="571" height="251" viewBox="0 0 571 251" fill="none" xmlns="http://www.w3.org/2000/svg">
<path d="M229.578 122.028C240.815 122.028 247.14 114.536 247.14 114.536L242.902 108.762C242.902 108.762 237.93 114.536 229.699 114.536C221.778 114.536 215.514 107.658 215.514 99.1224C215.514 90.0344 221.656 84.4464 229.454 84.4464C233.263 84.4464 238.482 85.9197 238.482 89.113V91.5704H245.788V86.7184C245.788 79.2877 234.859 76.9544 229.271 76.9544C216.62 76.9544 207.163 86.533 207.163 99.1224C207.163 112.018 216.252 122.028 229.578 122.028Z" fill="#00ADEF"/>
<path d="M270.592 114.475H266.232V84.5071H270.592V77.6911H254.257V84.5071H258.619V114.475H254.257V121.291H270.592V114.475Z" fill="#00ADEF"/>
<path d="M283.976 85.8583C283.976 84.9983 284.467 84.5077 285.327 84.5077H292.022V121.29H300.066V84.5077H306.759C307.619 84.5077 308.11 84.9983 308.11 85.8583V88.4983H315.171V81.621C315.171 78.7343 314.19 77.6917 311.242 77.6917H280.843C277.896 77.6917 276.914 78.7343 276.914 81.621V88.4983H283.976V85.8583Z" fill="#00ADEF"/>
<path d="M355.402 77.6912H351.289C348.465 77.6912 347.174 78.1205 345.577 80.8845L339.867 90.4645C338.331 93.0432 337.226 95.3765 337.226 95.3765H337.103C337.103 95.3765 335.998 92.9819 334.462 90.4645L328.691 80.8845C327.031 78.1205 325.805 77.6912 322.979 77.6912H318.866L333.111 102.255V121.291H341.155V102.255L355.402 77.6912Z" fill="#00ADEF"/>
<path d="M392.437 84.4464C400.298 84.4464 406.622 90.833 406.622 99.1837C406.622 107.904 400.298 114.536 392.437 114.536C384.577 114.536 378.25 107.904 378.25 99.1837C378.25 90.833 384.577 84.4464 392.437 84.4464ZM392.437 122.028C405.272 122.028 414.974 112.018 414.974 99.1837C414.974 86.7184 405.272 76.9544 392.437 76.9544C379.604 76.9544 369.901 86.7184 369.901 99.1837C369.901 112.018 379.604 122.028 392.437 122.028Z" fill="#00ADEF"/>
<path d="M430.933 121.291V103.667H444.875V96.8495H430.933V84.5082H439.348C440.206 84.5082 440.698 84.9988 440.698 85.8588V88.4988H447.944V81.8668C447.944 78.9815 446.716 77.6908 443.769 77.6908H418.898V84.5082H422.89V121.291H430.933Z" fill="#00ADEF"/>
<path d="M217.496 192.914H227.118C233.156 192.914 236.553 188.858 236.553 183.195C236.553 177.63 233.062 173.573 227.118 173.573H215.418V190.838C215.418 192.159 216.174 192.914 217.496 192.914ZM225.986 163.762C231.176 163.762 234.1 159.986 234.1 155.175C234.1 150.365 231.269 146.873 225.798 146.873H215.418V163.762H225.986ZM203.06 146.873H196.928V136.401H225.892C237.968 136.401 246.648 142.627 246.648 153.666C246.648 161.119 242.592 165.93 238.533 168.006V168.194C245.8 170.365 249.289 177.158 249.289 183.951C249.289 197.349 238.629 203.386 226.176 203.386H209.476C205.041 203.386 203.06 201.501 203.06 196.971V146.873Z" fill="#292F7B"/>
<path d="M290.312 176.026L284.559 159.233C283.332 155.553 281.916 149.232 281.916 149.232H281.728C281.728 149.232 280.312 155.553 279.085 159.233L273.332 176.026H290.312ZM312.579 203.386H305.22C300.503 203.386 298.805 202.16 297.295 197.914L293.144 186.216H270.501L266.349 197.914C264.84 202.16 263.236 203.386 258.517 203.386H251.064L275.407 136.4H288.333L312.579 203.386Z" fill="#292F7B"/>
<path d="M327.269 146.873H316.984C315.664 146.873 314.908 147.627 314.908 148.949V153.005H304.06V142.438C304.06 138.005 305.569 136.401 310.097 136.401H356.798C361.328 136.401 362.837 138.005 362.837 142.438V153.005H351.986V148.949C351.986 147.627 351.232 146.873 349.91 146.873H339.628V203.386H327.269V146.873Z" fill="#292F7B"/>
<path d="M393.625 176.026L387.871 159.233C386.643 155.553 385.227 149.232 385.227 149.232H385.041C385.041 149.232 383.625 155.553 382.398 159.233L376.643 176.026H393.625ZM415.891 203.386H408.533C403.815 203.386 402.117 202.16 400.607 197.914L396.455 186.216H373.813L369.661 197.914C368.153 202.16 366.546 203.386 361.83 203.386H354.375L378.718 136.4H391.645L415.891 203.386Z" fill="#292F7B"/>
<path d="M443.493 203.386H430.473L405.754 136.4H413.586C418.302 136.4 420.001 137.628 421.512 141.873L434.342 179.233C435.662 183.008 436.89 189.046 436.89 189.046H437.077C437.077 189.046 438.304 183.008 439.625 179.233L452.457 141.873C453.965 137.628 455.57 136.4 460.288 136.4H468.212L443.493 203.386Z" fill="#292F7B"/>
<path d="M476.026 192.914H482.723V146.873H476.026V136.401H501.12V146.873H494.423V192.914H501.12V203.386H476.026V192.914Z" fill="#292F7B"/>
<path d="M548.704 176.026L542.949 159.233C541.723 155.553 540.307 149.232 540.307 149.232H540.119C540.119 149.232 538.703 155.553 537.477 159.233L531.723 176.026H548.704ZM570.969 203.386H563.611C558.895 203.386 557.196 202.16 555.685 197.914L551.535 186.216H528.892L524.74 197.914C523.232 202.16 521.625 203.386 516.909 203.386H509.455L533.797 136.4H546.724L570.969 203.386Z" fill="#292F7B"/>
<path d="M5.29647 85.8403C5.29647 85.8403 5.50847 86.283 5.61381 86.5043C7.69514 90.8416 10.3058 94.907 13.3751 98.6323V164.127V224.326V229.395H13.3765C13.3765 240.878 48.5045 250.186 93.0031 250.186C137.5 250.186 172.63 240.878 172.63 229.395H172.631V95.0843L190.003 96.955L189.564 95.419C189.431 94.9523 186.348 83.431 177.212 77.7603C180.318 75.511 187.064 70.6016 186.62 61.3803L186.574 60.3976L134.095 58.5323C134.091 58.4536 134.09 58.375 134.087 58.2963C133.962 55.6243 133.652 53.0003 133.168 50.4336C132.975 49.407 132.755 48.391 132.506 47.3843C131.391 42.8523 129.73 38.523 127.592 34.4523L122.054 36.7803L120.387 33.8536L125.94 31.5203C120.31 22.1443 112.072 14.315 102.155 8.80563C98.8485 6.96964 95.3551 5.39096 91.7098 4.09763L89.5778 9.31898L86.3911 8.27896L88.5245 3.05363C83.2938 1.4763 77.7831 0.47496 72.0871 0.132294C69.4965 -0.0223694 66.8698 -0.0423584 64.2125 0.0816345C63.1991 0.128296 62.1911 0.196304 61.1911 0.284317C59.6898 0.414978 58.2045 0.590958 56.7338 0.810959C55.7551 0.956299 54.7818 1.12164 53.8178 1.30698C53.3351 1.39897 52.8551 1.49496 52.3778 1.5963C48.5498 2.40831 44.8525 3.5163 41.3125 4.8923L43.8725 9.92165L40.7725 11.2056L38.2165 6.18031C37.7685 6.38031 37.3218 6.5843 36.8791 6.79231C35.9911 7.20964 35.1165 7.6443 34.2538 8.09364C33.8218 8.31897 33.3925 8.54964 32.9671 8.78297C31.2658 9.71764 29.6125 10.719 28.0125 11.783C23.2138 14.9723 18.8965 18.723 15.1685 22.9203C11.4405 27.1176 8.30314 31.763 5.86714 36.7443L11.5858 38.607L10.1818 41.6656L4.47647 39.8083C4.27381 40.287 4.08047 40.7696 3.89114 41.2536C2.57114 44.6456 1.56714 48.1683 0.909806 51.791C0.815139 52.3083 0.728472 52.827 0.648472 53.3483C0.489806 54.3923 0.359139 55.4416 0.257806 56.5003C0.0044723 59.143 -0.0648611 61.831 0.0618055 64.551C0.361805 70.947 1.71914 77.0643 3.97514 82.7696L9.52981 80.435L10.8311 83.515L5.29647 85.8403Z" fill="#292F7B"/>
<path d="M92.2443 74.5382C94.3243 70.5582 95.5057 66.0422 95.5057 61.2489C95.5057 45.2822 82.4657 32.3382 66.3803 32.3382C50.295 32.3382 37.255 45.2822 37.255 61.2489C37.255 66.0422 38.4377 70.5582 40.5163 74.5382H15.5577V97.4755L21.9337 103.104V162.39V220.836L21.935 228.53C23.3563 230.046 29.0937 233.669 43.3883 236.832C57.3737 239.925 74.3857 241.628 93.003 241.628C111.62 241.628 128.632 239.925 142.616 236.832C156.911 233.67 162.65 230.046 164.072 228.53V220.836V153.294V90.0462H167.647V74.5382H92.2443Z" fill="#00ADEF"/>
<path d="M21.9345 228.53C23.3558 230.046 29.0931 233.668 43.3891 236.831C57.3731 239.924 74.3865 241.627 93.0038 241.627C111.621 241.627 128.632 239.924 142.617 236.831C156.91 233.67 162.649 230.046 164.073 228.53V220.835V153.294C141.009 151.639 117.826 151.63 90.1665 153.572C65.8945 155.279 42.8585 158.331 21.9331 162.391V220.835L21.9345 228.53Z" fill="#60C560"/>
<path d="M142.617 236.831C156.911 233.67 162.649 230.046 164.073 228.53C141.959 228.146 131.105 226.159 121.301 224.459C101.422 221.011 102.121 214.952 102.121 214.952C102.349 207.458 126.147 200.623 126.147 200.623C154.318 192.167 152.261 184.84 152.261 184.84C151.462 176.944 128.614 176.69 128.614 176.69C98.9807 175.28 100.963 170.895 100.963 170.895C103.623 164.791 147.746 158.084 164.073 155.804V153.752C125.879 157.823 118.594 159.279 118.594 159.279C76.6287 166.339 73.1007 171.964 73.1007 171.964C70.2621 181.348 99.3847 183.431 99.3847 183.431C107.503 184.416 103.082 188.083 103.082 188.083C100.531 190.103 79.4074 196.795 79.4074 196.795C75.7607 197.664 71.8167 198.831 68.8434 199.878C39.2207 210.3 41.6687 228.538 44.8274 237.136C58.5354 240.034 75.0154 241.627 93.0034 241.627C111.621 241.627 128.633 239.924 142.617 236.831Z" fill="white"/>
<path d="M158.421 125.425C156.675 121.562 152.796 118.87 148.283 118.87C146.041 118.87 143.959 119.538 142.212 120.678C141.227 115.001 136.287 110.68 130.329 110.68C124.567 110.68 119.756 114.72 118.552 120.118C118.144 120.064 117.731 120.025 117.309 120.025C113.181 120.025 109.688 122.733 108.504 126.469C107.911 126.244 107.272 126.114 106.6 126.114C103.643 126.114 101.245 128.512 101.245 131.469H164.072V122.24C161.716 122.345 159.655 123.584 158.421 125.425Z" fill="white"/>
<path d="M167.647 90.0459H164.072V122.241V131.469V153.294V153.753V155.805V220.835V228.53C162.649 230.046 156.911 233.67 142.617 236.831C128.632 239.925 111.62 241.627 93.0041 241.627C75.0147 241.627 58.5361 240.034 44.8281 237.137C44.3467 237.035 43.8627 236.935 43.3894 236.831C29.0934 233.669 23.3561 230.046 21.9347 228.53L21.9334 220.835V162.39V103.103L15.5587 97.4753L13.3747 95.5459V229.394C13.3747 240.878 48.5054 250.186 93.0041 250.186C137.501 250.186 172.629 240.878 172.629 229.394L172.631 90.0459H167.647Z" fill="#292F7B"/>
<path d="M88.747 63.7314L71.3764 58.0741L87.7017 51.2141C88.683 53.3607 89.2537 55.6701 89.3657 58.0647C89.455 59.9954 89.2403 61.8981 88.747 63.7314ZM83.507 72.6327C81.8484 74.2847 79.9404 75.6528 77.855 76.7207L69.9163 61.1154L87.5977 66.8727C86.615 68.9567 85.243 70.9034 83.507 72.6327ZM71.311 78.9394L70.8003 70.2287L74.7697 78.0301C73.6497 78.4141 72.4963 78.7207 71.311 78.9394ZM51.7564 74.1141C49.7377 72.4474 48.1137 70.4954 46.9177 68.3514L57.491 63.9087L61.7737 68.5781L58.0243 77.7607C55.751 76.8848 53.6337 75.6634 51.7564 74.1141ZM45.5523 65.2981C44.9883 63.6501 44.651 61.9261 44.5684 60.1554C44.4564 57.7647 44.8083 55.4167 45.5817 53.1927L48.5483 54.1581L55.0897 61.2914L45.5523 65.2981ZM50.4257 45.5874C52.107 43.9128 54.0457 42.5287 56.163 41.4554L63.275 55.4368L46.9683 50.1274C47.8804 48.5021 49.0337 46.9741 50.4257 45.5874ZM66.023 38.8874C66.7163 38.8554 67.4044 38.8514 68.0883 38.8741C69.9643 38.9407 71.8003 39.2194 73.5643 39.6941L67.0883 55.5581L59.2537 40.1581C61.399 39.4314 63.6737 38.9967 66.023 38.8874ZM82.1763 44.1047C83.687 45.3527 84.975 46.7621 86.031 48.2887L71.1083 54.5607L76.7283 40.7914C78.6923 41.6354 80.527 42.7434 82.1763 44.1047ZM70.7963 201.457L78.4923 197.342L79.9803 206.217L70.7963 201.457ZM48.5963 213.33L59.731 207.374L70.8257 213.125L48.5963 213.33ZM43.7244 203.877L44.771 199.621L48.2803 201.441L43.7244 203.877ZM69.983 162.973L72.327 160.586L73.3697 166.805L69.983 162.973ZM60.2017 151.909L66.371 151.851L63.099 155.185L60.2017 151.909ZM53.2084 165.259L54.2924 160.845L55.8323 162.586L53.2084 165.259ZM64.999 192.501L59.3843 195.503L54.1003 192.601L64.999 192.501ZM51.2883 182.281L62.7217 170.381L73.0657 182.079L51.2883 182.281ZM189.564 95.4181C189.431 94.9527 186.348 83.4314 177.214 77.7607C180.318 75.5101 187.064 70.6007 186.62 61.3794L186.574 60.3981L134.095 58.5327C134.091 58.4541 134.09 58.3754 134.087 58.2967C133.962 55.6234 133.652 52.9994 133.168 50.4341C132.975 49.4074 132.755 48.3901 132.506 47.3834C131.391 42.8527 129.73 38.5234 127.592 34.4527L122.054 36.7794L120.387 33.8528L125.942 31.5207C120.31 22.1434 112.072 14.3141 102.155 8.80476C98.8483 6.96877 95.355 5.39009 91.7097 4.09676L89.5777 9.31808L86.391 8.2794L88.5243 3.05409C83.2937 1.47542 77.783 0.475403 72.087 0.132736C69.4964 -0.0232544 66.8697 -0.0432434 64.2123 0.0807648C63.199 0.128754 62.191 0.196747 61.191 0.283417C59.6897 0.415421 58.2043 0.591415 56.7337 0.810089C55.755 0.956757 54.7817 1.12209 53.8177 1.30608C53.335 1.39809 52.855 1.49542 52.3777 1.59676C48.551 2.40741 44.8523 3.51541 41.3124 4.8914L43.8724 9.92209L40.7737 11.2047L38.2177 6.18076C37.7684 6.38075 37.3217 6.58475 36.879 6.79276C35.9923 7.20876 35.1164 7.64342 34.2537 8.09409C33.8217 8.31941 33.3924 8.54875 32.967 8.78342C31.2657 9.71808 29.6124 10.7194 28.0124 11.7821C23.6137 14.7061 19.619 18.1008 16.1123 21.8794C15.4217 22.6248 14.751 23.3861 14.0977 24.1608C13.6084 24.7408 13.131 25.3288 12.663 25.9248C12.5364 26.0887 12.4084 26.2541 12.2804 26.4194C11.8617 26.9661 11.451 27.5194 11.051 28.0794C10.891 28.3008 10.735 28.5234 10.579 28.7474C10.2217 29.2594 9.87235 29.7781 9.53102 30.3021C9.38569 30.5247 9.24168 30.7474 9.10035 30.9727C7.91635 32.8394 6.83502 34.7647 5.86702 36.7447L11.5857 38.6061L10.1817 41.6661L4.47635 39.8074C4.27502 40.2874 4.08035 40.7687 3.89102 41.2541C2.57102 44.6461 1.56702 48.1687 0.909687 51.7901C0.815021 52.3074 0.728355 52.8274 0.648355 53.3487C0.489688 54.3914 0.359023 55.4421 0.257689 56.4994C0.00435603 59.1434 -0.0636482 61.8301 0.0616851 64.5514C0.361685 70.9474 1.71902 77.0647 3.97502 82.7687L9.52969 80.4341L10.831 83.5141L5.29502 85.8407C5.29502 85.8407 5.50835 86.2821 5.61369 86.5034C5.83635 86.9674 6.06435 87.4261 6.29902 87.8834C6.54569 88.3647 6.79902 88.8421 7.05902 89.3167C13.5457 101.147 24.091 110.705 36.9697 116.545C37.4563 116.765 37.9457 116.981 38.4403 117.19C39.427 117.61 40.427 118.009 41.439 118.385L43.571 113.161L46.7364 114.255L44.6044 119.477C47.439 120.379 49.6283 121.109 52.6177 121.657L51.4883 134.571L32.2683 134.749L29.7204 134.773L29.7337 137.319L29.7497 140.195L29.763 142.705L29.7603 142.761L29.763 142.762L41.107 148.219L46.0484 148.174L25.051 233.675L24.3977 236.335L27.0563 236.99L31.7817 238.153L34.4497 238.809L34.515 238.537L35.1724 238.699L38.8404 223.765L82.819 223.359L86.475 247.47L86.891 250.222L89.6363 249.761L94.4363 248.957L97.127 248.506L96.7097 245.953L101.728 243.125L82.171 148.041L96.3843 147.99L96.3523 143.067L89.2497 134.223V134.222L86.683 134.246L74.5977 134.357L73.9457 122.466C76.415 122.217 78.8443 121.849 81.223 121.363C82.2683 121.15 83.3017 120.915 84.327 120.658C85.3523 120.402 86.367 120.123 87.371 119.825C89.883 119.077 92.327 118.199 94.6964 117.199L92.1417 112.175L95.191 110.797L97.7483 115.825C104.94 112.379 111.359 107.791 116.728 102.335C117.803 101.245 118.835 100.119 119.823 98.9607C120.482 98.1887 121.12 97.4021 121.739 96.6021C123.399 94.4541 124.91 92.2047 126.266 89.8727L190.003 96.9541L189.564 95.4181Z" fill="#2B327B"/>
<path d="M124.859 79.0062L130.543 80.8569C130.334 81.4129 130.115 81.9636 129.891 82.5129C129.875 82.5542 129.856 82.5956 129.839 82.6369C129.62 83.1689 129.392 83.6969 129.159 84.2222L183.991 89.5756C181.982 85.8249 178.763 81.2862 173.95 78.7796L172.22 77.8769L173.911 76.9036C173.992 76.8556 180.53 73.7116 182.911 67.1302L134.01 64.8809L134.008 64.8836C133.972 65.4182 133.927 65.9502 133.875 66.4809C133.872 66.5062 133.871 66.5329 133.868 66.5582C133.762 67.6236 133.626 68.6822 133.46 69.7342C133.454 69.7809 133.444 69.8262 133.439 69.8729C133.364 70.3342 133.284 70.7929 133.2 71.2516C133.186 71.3302 133.171 71.4076 133.158 71.4849C132.968 72.4782 132.755 73.4649 132.515 74.4422C132.487 74.5609 132.455 74.6769 132.427 74.7956C132.334 75.1622 132.238 75.5276 132.138 75.8929C132.103 76.0249 132.066 76.1582 132.028 76.2902C131.898 76.7556 131.764 77.2182 131.622 77.6796C131.62 77.6822 131.619 77.6862 131.618 77.6902L125.895 75.8276L124.859 79.0062Z" fill="white"/>
<path d="M68.2353 122.826C63.9019 122.93 59.6526 122.65 55.5286 122.023L54.4366 134.866L68.8006 134.715L68.2353 122.826Z" fill="white"/>
<path d="M74.3798 37.6982L86.3918 8.27953C79.5251 6.23019 72.1331 5.27553 64.4705 5.63286C57.1838 5.97286 50.2491 7.47153 43.8718 9.92086L58.2758 38.2342C60.6931 37.3835 63.2665 36.8742 65.9225 36.7502C68.8305 36.6142 71.6838 36.9435 74.3798 37.6982Z" fill="white"/>
<path d="M88.0478 47.4423L120.388 33.853C113.56 22.689 102.652 13.9783 89.5771 9.31832L77.5385 38.8077C79.6998 39.733 81.7211 40.9543 83.5385 42.4557C85.3265 43.9317 86.8358 45.6103 88.0478 47.4423Z" fill="white"/>
<path d="M44.9331 69.1854L10.8318 83.5147C17.0478 96.9947 28.8905 107.649 43.5718 113.16L57.2171 79.736C54.7451 78.78 52.4398 77.4534 50.3945 75.764C48.1011 73.8707 46.2665 71.64 44.9331 69.1854Z" fill="white"/>
<path d="M55.1923 39.5492L40.7737 11.2052C27.8617 16.9572 17.5177 26.7078 11.5857 38.6065L44.8923 49.4518C45.9297 47.5172 47.275 45.7052 48.915 44.0718C50.7563 42.2372 52.8777 40.7225 55.1923 39.5492Z" fill="white"/>
<path d="M43.5451 52.5291L10.1825 41.6664C7.22513 48.6664 5.7558 56.3144 6.1278 64.2677C6.3918 69.9357 7.57313 75.3611 9.52913 80.4344L43.5758 66.1291C42.9185 64.2517 42.5251 62.2824 42.4318 60.2544C42.3065 57.6011 42.6918 54.9957 43.5451 52.5291Z" fill="white"/>
<path d="M78.8213 78.6201L95.1906 110.796C109.071 104.083 119.761 92.6708 124.835 78.9974L89.6479 67.5401C88.5546 69.9387 87.0013 72.1734 85.0173 74.1481C83.1986 75.9601 81.1053 77.4548 78.8213 78.6201Z" fill="white"/>
<path d="M90.7874 64.3955L95.0954 65.7982L125.895 75.8275C127.541 70.3462 128.301 64.5488 128.022 58.5795C127.657 50.7555 125.546 43.3902 122.054 36.7795L89.6781 50.3848C90.7541 52.7582 91.3781 55.3128 91.5021 57.9648C91.6034 60.1582 91.3581 62.3195 90.7874 64.3955Z" fill="white"/>
<path d="M65.7678 81.4828C63.9425 81.4188 62.1505 81.1695 60.4158 80.7482L46.7371 114.256C53.8878 116.519 61.6331 117.591 69.6785 117.215C77.6825 116.842 85.2585 115.07 92.1411 112.176L75.7478 79.9535C73.3025 80.8228 70.6998 81.3442 68.0105 81.4695C67.2585 81.5042 66.5105 81.5095 65.7678 81.4828Z" fill="white"/>
<path d="M66.2249 162.858L74.1342 154.802L77.6542 175.787L66.2249 162.858ZM44.7995 185.081L62.8075 166.339L79.0942 184.765L44.7995 185.081ZM83.5889 211.174L64.6075 201.335L80.5129 192.83L83.5889 211.174ZM37.1475 216.175L37.1929 215.997L59.4022 204.119L81.8689 215.762L37.1475 216.175ZM43.5982 189.958L76.1249 189.658L59.3662 198.619L43.5982 189.958ZM42.2955 195.253L54.1609 201.403L38.7555 209.641L42.2955 195.253ZM52.3262 154.485L59.5755 162.685L47.2089 175.281L52.3262 154.485ZM72.9595 149.053L62.9929 159.203L54.1715 149.225L72.9595 149.053ZM49.7702 144.501L27.7115 234.33L32.4369 235.493L35.9489 221.053L85.1715 220.599L89.1835 247.059L93.9822 246.255L77.3062 144.321L49.7702 144.501Z" fill="white"/>
<path d="M86.7222 139.678L86.7062 136.802L32.2915 137.306L32.3049 140.181L86.7222 139.678Z" fill="white"/>
<path d="M167.647 90.0459H164.072V122.241V131.469V153.294V153.753V155.805V220.835V228.53C162.649 230.046 156.911 233.67 142.617 236.831C128.632 239.925 111.62 241.627 93.0041 241.627C75.0147 241.627 58.5361 240.034 44.8281 237.137C44.3467 237.035 43.8627 236.935 43.3894 236.831C29.0934 233.669 23.3561 230.046 21.9347 228.53L21.9334 220.835V162.39V103.103L15.5587 97.4753L13.3747 95.5459V229.394C13.3747 240.878 48.5054 250.186 93.0041 250.186C137.501 250.186 172.629 240.878 172.629 229.394L172.631 90.0459H167.647Z" fill="#292F7B"/>
</svg>
